# AST/ASF file generated using VICON BodyLanguage
# -----------------------------------------------
:version 1.10
:name VICON
:units
  mass 1.0
  length 0.45
  angle deg
:documentation
   .ast/.asf automatically generated from VICON data using
   VICON BodyBuilder and BodyLanguage model FoxedUp or BRILLIANT.MOD
:root
   order TX TY TZ RX RY RZ
   axis XYZ
   position 0 0 0  
   orientation 0 0 0 
:bonedata
  begin
     id 1 
     name lhipjoint
     direction 0.707368 -0.647095 0.284426 
     length 2.60678 
     axis 0 0 0  XYZ
  end
  begin
     id 2 
     name lfemur
     direction 0.34202 -0.939693 0  
     length 6.63812  
     axis 0 0 20  XYZ
    dof rx ry rz
    limits (-160.0 20.0)
           (-70.0 70.0)
           (-60.0 70.0)
  end
  begin
     id 3 
     name ltibia
     direction 0.34202 -0.939693 0   
     length 7.51178   
     axis 0 0 20   XYZ
    dof rx
    limits (-10.0 170.0)
  end
  begin
     id 4 
     name lfoot
     direction 0.121251 -0.333133 0.935051   
     length 1.83716   
     axis -90 7.62852e-016 20   XYZ
    dof rx rz
    limits (-45.0 90.0)
           (-70.0 20.0)
  end
  begin
     id 5 
     name ltoes
     direction 1.53611e-011 -4.21962e-011 1   
     length 0.916133   
     axis -90 7.62852e-016 20   XYZ
    dof rx
    limits (-90.0 20.0)
  end
  begin
     id 6 
     name rhipjoint
     direction -0.692419 -0.660507 0.290321   
     length 2.55385  
     axis 0 0 0  XYZ 
  end
  begin
     id 7 
     name rfemur
     direction -0.34202 -0.939693 0   
     length 7.29079   
     axis 0 0 -20   XYZ
    dof rx ry rz
    limits (-160.0 20.0)
           (-70.0 70.0)
           (-70.0 60.0)
  end
  begin
     id 8 
     name rtibia
     direction -0.34202 -0.939693 0   
     length 7.47143   
     axis 0 0 -20   XYZ
    dof rx
    limits (-10.0 170.0)
 end
 begin
     id 9 
     name rfoot
     direction -0.119907 -0.329441 0.936532   
     length 1.79439  
     axis -90 -7.62852e-016 -20   XYZ
    dof rx rz
    limits (-45.0 90.0)
           (-20.0 70.0)
  end
  begin
     id 10 
     name rtoes
     direction -1.53571e-011 -4.21961e-011 1   
     length 0.896039   
     axis -90 -7.62852e-016 -20   XYZ
    dof rx
    limits (-90.0 20.0)
  end
  begin
     id 11 
     name lowerback
     direction 0.0367721 0.992912 -0.113016   
     length 1.73542   
     axis 0 0 0   XYZ
    dof rx ry rz
    limits (-20.0 45.0)
           (-30.0 30.0)
           (-30.0 30.0)
  end
  begin
     id 12 
     name upperback
     direction -0.000314626 0.990678 0.136227   
     length 1.7514   
     axis 0 0 0   XYZ
    dof rx ry rz
    limits (-20.0 45.0)
           (-30.0 30.0)
           (-30.0 30.0)
  end
  begin
     id 13 
     name thorax
     direction -0.0226159 0.981151 0.191917   
     length 1.71471   
     axis 0 0 0   XYZ
    dof rx ry rz
    limits (-20.0 45.0)
           (-30.0 30.0)
           (-30.0 30.0)
  end
  begin
     id 14 
     name lowerneck
     direction 0.0219333 0.998071 0.0580739   
     length 1.65882   
     axis 0 0 0   XYZ
    dof rx ry rz
    limits (-20.0 45.0)
           (-30.0 30.0)
           (-30.0 30.0)
  end
  begin
     id 15 
     name upperneck
     direction 0.0384529 0.980058 -0.194957   
     length 1.6612   
     axis 0 0 0   XYZ
    dof rx ry rz
    limits (-20.0 45.0)
           (-30.0 30.0)
           (-30.0 30.0)
  end
  begin
     id 16
     name head
     direction 0.00592123 0.997421 -0.0715234  
     length 1.68077  
     axis 0 0 0   XYZ
    dof rx ry rz
    limits (-20.0 45.0)
           (-30.0 30.0)
           (-30.0 30.0)
  end
  begin
     id 17 
     name lclavicle
     direction 0.904803 0.417826 0.0821728  
     length 3.42227  
     axis 0 0 0   XYZ
    dof ry rz
    limits (-20.0 10.0)
           (0.0 20.0)
  end
  begin
     id 18 
     name lhumerus
     direction 1 -4.48965e-011 -2.68786e-027   
     length 5.11878   
     axis -180 -30 -90   XYZ
    dof rx ry rz
    limits (-60.0 90.0)
           (-90.0 90.0)
           (-90.0 90.0)
  end
  begin
     id 19
     name lradius
     direction 1 -4.48965e-011 2.61168e-028   
     length 3.59971   
     axis -180 -30 -90   XYZ
    dof rx
    limits (-10.0 170.0)
  end
  begin
     id 20
     name lwrist
     direction 1 -4.48965e-011 1.58672e-027   
     length 1.79985   
     axis -1.65735e-015 90 90   XYZ
    dof ry
    limits (-180.0 0.0)
 end
  begin
     id 21 
     name lhand
     direction 1 -4.48942e-011 3.17344e-027   
     length 0.62877   
     axis -2.02492e-015 90 90   XYZ
    dof rx rz
    limits (-90.0 90.0)
           (-45.0 45.0)
  end
  begin
     id 22 
     name lfingers
     direction 1 -4.49011e-011 6.34687e-027   
     length 0.506931   
     axis -4.04985e-015 90 90   XYZ
    dof rx
    limits (0.0 90.0)
  end
  begin
     id 23
     name lthumb
     direction 0.707107 -6.34982e-011 0.707107   
     length 0.727854   
     axis -90 45 2.85299e-015   XYZ
    dof rx rz
    limits (-45.0 45.0)
           (-45.0 45.0)
  end
  begin
     id 24 
     name rclavicle
     direction -0.945647 0.32488 0.0143075   
     length 3.52737  
     axis 0 0 0   XYZ 
    dof ry rz
    limits (-10.0 20.0)
           (-20.0 0.0)
  end
  begin
     id 25 
     name rhumerus
     direction -1 -4.48962e-011 1.92182e-027  
     length 5.4902   
     axis -180 30 90   XYZ
    dof rx ry rz
    limits (-90.0 60.0)
           (-90.0 90.0)
           (-90.0 90.0)
  end
  begin
     id 26 
     name rradius
     direction -1 -4.48967e-011 -5.97193e-028   
     length 3.20659   
     axis -180 30 90   XYZ
    dof rx
    limits (-10.0 170.0)
  end
  begin
     id 27 
     name rwrist
     direction -1 -4.48964e-011 1.58672e-027   
     length 1.6033   
     axis -1.65735e-015 -90 -90   XYZ
    dof ry
    limits (-180.0 0.0)
  end
  begin
     id 28
     name rhand
     direction -1 -4.49006e-011 3.17344e-027   
     length 0.691885   
     axis -2.02492e-015 -90 -90   XYZ
    dof rx rz
    limits (-90.0 90.0)
           (-45.0 45.0)
  end
  begin
     id 29
     name rfingers
     direction -1 -4.48908e-011 6.34687e-027   
     length 0.557815   
     axis -4.04985e-015 -90 -90   XYZ
    dof rx
    limits (0.0 90.0)
  end
  begin
     id 30
     name rthumb
     direction -0.707107 -6.34999e-011 0.707107   
     length 0.800915   
     axis -90 -45 -2.85299e-015   XYZ
    dof rx rz
    limits (-45.0 45.0)
           (-45.0 45.0)
  end
:hierarchy
  begin
    root lhipjoint rhipjoint lowerback
    lhipjoint lfemur
    lfemur ltibia
    ltibia lfoot
    lfoot ltoes
    rhipjoint rfemur
    rfemur rtibia
    rtibia rfoot
    rfoot rtoes
    lowerback upperback
    upperback thorax
    thorax lowerneck lclavicle rclavicle
    lowerneck upperneck
    upperneck head
    lclavicle lhumerus
    lhumerus lradius
    lradius lwrist
    lwrist lhand lthumb
    lhand lfingers
    rclavicle rhumerus
    rhumerus rradius
    rradius rwrist
    rwrist rhand rthumb
    rhand rfingers
  end

#!OML:ASF I:\Actors\actors\Patient Classification 1\Patient 1\Session 1\Subject1.ASF
:FULLY-SPECIFIED
:DEGREES
1
root 0.690577 17.4229 9.06531 8.79655 -1.4015 -10.7211
lowerback 1.05543 0.842504 7.66711
upperback -10.0649 1.95639 2.9238
thorax -11.2988 0.412825 -1.31881
lowerneck -7.56573 -10.157 -7.66615
upperneck 23.2555 -14.5309 5.8554
head 9.58048 -6.93321 1.64108
rclavicle 1.71949e-014 -2.44505e-014
rhumerus -52.2562 -38.7359 -54.9871
rradius 24.0058
rwrist 49.4944
rhand 12.7301 -22.5472
rfingers 7.12502
rthumb 37.7109 -48.4245
lclavicle 1.71949e-014 -2.44505e-014
lhumerus -47.2666 29.8459 66.8605
lradius 21.4894
lwrist -26.389
lhand -17.2391 -9.19604
lfingers 7.12502
lthumb 9.00467 20.5918
rfemur -1.55168 25.7824 27.5394
rtibia 0.0666138
rfoot -12.8099 -27.9601
rtoes -0.0954551
lfemur 8.35562 -49.3037 -11.4996
ltibia -4.94434
lfoot -27.6656 55.7218
ltoes 13.6941
2
root 0.687488 17.4169 9.05397 8.99388 -1.58401 -10.7931
lowerback 1.10703 0.899136 7.67145
upperback -10.1579 2.04676 2.93676
thorax -11.4321 0.450949 -1.31606
lowerneck -7.55099 -10.1451 -7.57371
upperneck 23.2184 -14.5029 5.76124
head 9.54714 -6.92323 1.60101
rclavicle -8.49804e-015 6.04305e-014
rhumerus -52.2827 -38.8813 -54.8634
rradius 23.8854
rwrist 49.6899
rhand 12.6981 -22.5806
rfingers 7.12502
rthumb 37.6807 -48.466
lclavicle -8.49804e-015 6.04305e-014
lhumerus -47.3048 29.9914 66.7144
lradius 21.4295
lwrist -26.5844
lhand -17.2715 -9.37996
lfingers 7.12502
lthumb 8.97337 20.4092
rfemur -1.99195 25.8429 27.4565
rtibia 0.299001
rfoot -12.745 -27.7768
rtoes 0.504985
lfemur 7.96155 -49.1711 -11.071
ltibia -4.94278
lfoot -27.6584 55.7264
ltoes 13.7453
3
root 0.684597 17.4119 9.04268 9.20882 -1.76118 -10.7821
lowerback 1.09823 0.95629 7.568
upperback -10.239 2.12197 2.94334
thorax -11.5163 0.493305 -1.25864
lowerneck -7.53523 -10.1447 -7.5109
upperneck 23.1729 -14.4904 5.68634
head 9.51591 -6.92106 1.56997
rclavicle -2.15681e-014 1.45113e-014
rhumerus -52.2317 -38.9108 -54.8719
rradius 23.8366
rwrist 49.7696
rhand 12.655 -22.6273
rfingers 7.12502
rthumb 37.64 -48.5236
lclavicle -2.15681e-014 1.45113e-014
lhumerus -47.3266 30.0859 66.6584
lradius 21.4187
lwrist -26.6998
lhand -17.2676 -9.49772
lfingers 7.12502
lthumb 8.97711 20.2913
rfemur -2.46211 25.9019 27.2645
rtibia 0.527956
rfoot -12.6961 -27.6249
rtoes 1.0072
lfemur 7.50777 -49.0257 -10.7125
ltibia -4.90757
lfoot -27.6154 55.7507
ltoes 13.7235
4
root 0.682346 17.4074 9.03183 9.46171 -1.89577 -10.6817
lowerback 1.00978 1.00921 7.37596
upperback -10.323 2.1748 2.92925
thorax -11.557 0.533525 -1.17111
lowerneck -7.5198 -10.1655 -7.57442
upperneck 23.17 -14.5255 5.74661
head 9.52486 -6.93706 1.5958
rclavicle 1.70458e-014 5.30755e-014
rhumerus -52.2476 -38.9905 -54.82
rradius 23.8665
rwrist 49.9554
rhand 12.5567 -22.6145
rfingers 7.12502
rthumb 37.5471 -48.5355
lclavicle 1.70458e-014 5.30755e-014
lhumerus -47.2939 30.0469 66.7364
lradius 21.4491
lwrist -26.6153
lhand -17.2468 -9.5385
lfingers 7.12502
lthumb 8.99722 20.2496
rfemur -2.958 25.9786 26.9494
rtibia 0.714837
rfoot -12.6499 -27.5698
rtoes 0.251438
lfemur 6.94969 -48.9275 -10.4002
ltibia -4.82872
lfoot -27.7737 55.7508
ltoes 13.8726
5
root 0.675881 17.4055 9.03151 9.96614 -1.87655 -10.4217
lowerback 0.46212 1.08605 7.00537
upperback -10.4582 2.19439 2.80971
thorax -11.3757 0.574944 -1.08666
lowerneck -7.50523 -10.2497 -7.59501
upperneck 23.1752 -14.6821 5.89791
head 9.55016 -6.99665 1.62931
rclavicle -2.90723e-014 2.00773e-014
rhumerus -52.3361 -39.281 -54.6502
rradius 23.7515
rwrist 49.9629
rhand 12.4644 -22.7829
rfingers 7.12502
rthumb 37.4598 -48.7271
lclavicle -2.90723e-014 2.00773e-014
lhumerus -46.9354 29.3083 67.3356
lradius 21.5053
lwrist -25.7734
lhand -17.5001 -9.60376
lfingers 7.12502
lthumb 8.75273 20.1948
rfemur -3.63777 26.2603 26.366
rtibia 0.770664
rfoot -12.7006 -27.8434
rtoes 0.358663
lfemur 5.92164 -49.0155 -9.88702
ltibia -4.72429
lfoot -28.0518 55.7761
ltoes 14.1546
6
root 0.6631 17.4018 9.02087 10.7676 -2.12827 -9.8207
lowerback -0.221642 1.27727 6.12538
upperback -10.698 2.32489 2.55853
thorax -11.2285 0.708187 -0.868658
lowerneck -7.49984 -10.3753 -7.43981
upperneck 23.1409 -14.9033 5.97682
head 9.54777 -7.07947 1.60407
rclavicle 9.39258e-015 1.59028e-014
rhumerus -52.4022 -39.6377 -54.5251
rradius 23.5024
rwrist 49.6589
rhand 12.3818 -23.1303
rfingers 7.12502
rthumb 37.3817 -49.0951
lclavicle 9.39258e-015 1.59028e-014
lhumerus -46.2626 27.8137 68.556
lradius 21.7283
lwrist -24.1031
lhand -17.959 -9.03004
lfingers 7.12502
lthumb 8.30994 20.7865
rfemur -4.92912 26.7089 25.1098
rtibia 1.03012
rfoot -12.7684 -28.0385
rtoes 1.90152
lfemur 4.26159 -49.07 -9.27896
ltibia -4.50765
lfoot -28.7531 55.865
ltoes 14.9479
7
root 0.658741 17.4054 9.02277 10.8838 -2.23049 -9.48924
lowerback -0.384009 1.33224 5.68437
upperback -10.7187 2.34936 2.4339
thorax -11.1536 0.75625 -0.757829
lowerneck -7.48854 -10.434 -7.31082
upperneck 23.1153 -14.9914 5.91935
head 9.52769 -7.11644 1.55526
rclavicle -1.20762e-014 4.49253e-014
rhumerus -52.3993 -39.7201 -54.5786
rradius 23.4266
rwrist 49.5124
rhand 12.2139 -23.2808
rfingers 7.12502
rthumb 37.223 -49.2873
lclavicle -1.20762e-014 4.49253e-014
lhumerus -45.8677 26.9072 69.383
lradius 22.0144
lwrist -23.0461
lhand -18.1815 -7.62443
lfingers 7.12502
lthumb 8.09518 22.2005
rfemur -5.11007 26.8396 24.6267
rtibia 1.02428
rfoot -12.8307 -28.121
rtoes 2.69159
lfemur 4.03332 -49.2056 -9.50823
ltibia -4.4236
lfoot -28.9714 55.9904
ltoes 15.1213
8
root 0.658575 17.4048 9.02364 10.8935 -2.22052 -9.47791
lowerback -0.00554908 1.37948 5.8359
upperback -10.9977 2.45854 2.28569
thorax -11.6944 0.768195 -1.0197
lowerneck -7.20907 -10.4743 -7.25242
upperneck 23.2777 -15.0719 5.83288
head 9.52704 -7.16471 1.52078
rclavicle -7.95139e-015 -2.38542e-015
rhumerus -53.0381 -39.4897 -54.4141
rradius 23.5748
rwrist 49.4258
rhand 12.1295 -23.4357
rfingers 7.12502
rthumb 37.1432 -49.463
lclavicle -7.95139e-015 -2.38542e-015
lhumerus -46.1747 26.422 69.2939
lradius 22.1002
lwrist -22.9252
lhand -18.2325 -6.90661
lfingers 7.12502
lthumb 8.04593 22.9202
rfemur -5.12042 26.7915 24.6099
rtibia 1.01877
rfoot -12.7876 -28.0921
rtoes 2.56946
lfemur 4.02797 -49.2117 -9.51893
ltibia -4.42564
lfoot -28.8234 56.0275
ltoes 14.8534
9
root 0.658574 17.4049 9.0238 10.9082 -2.21687 -9.48255
lowerback -0.391887 1.30806 5.67563
upperback -10.715 2.31467 2.4289
thorax -11.1463 0.74 -0.755169
lowerneck -7.47461 -10.4374 -7.10121
upperneck 23.0512 -14.9494 5.62243
head 9.45668 -7.11136 1.43332
rclavicle 3.37934e-015 -1.27222e-014
rhumerus -52.2653 -39.6135 -54.8593
rradius 23.5159
rwrist 49.6357
rhand 12.0952 -23.753
rfingers 7.12502
rthumb 37.1107 -49.7887
lclavicle 3.37934e-015 -1.27222e-014
lhumerus -45.7986 27.1127 69.3
lradius 21.9954
lwrist -23.1692
lhand -18.2105 -7.13182
lfingers 7.12502
lthumb 8.06715 22.6942
rfemur -5.14049 26.7655 24.6049
rtibia 1.01098
rfoot -12.7289 -28.0747
rtoes 2.45477
lfemur 4.02427 -49.2608 -9.50318
ltibia -4.44645
lfoot -29.014 56.0378
ltoes 14.9556
10
root 0.658445 17.4057 9.02426 10.8956 -2.22959 -9.48868
lowerback -0.368149 1.29778 5.66994
upperback -10.7045 2.30266 2.43927
thorax -11.1498 0.735244 -0.740386
lowerneck -7.4756 -10.4546 -6.97698
upperneck 23.0034 -14.9387 5.42156
head 9.41194 -7.11732 1.35081
rclavicle 2.61402e-014 1.78906e-015
rhumerus -52.1231 -39.4763 -55.0918
rradius 23.5537
rwrist 49.5369
rhand 11.905 -24.1037
rfingers 7.12502
rthumb 36.9309 -50.186
lclavicle 2.61402e-014 1.78906e-015
lhumerus -45.7841 27.1213 69.3182
lradius 22.0115
lwrist -23.0728
lhand -18.1301 -7.4202
lfingers 7.12502
lthumb 8.1448 22.4028
rfemur -5.10118 26.7958 24.6245
rtibia 0.977194
rfoot -12.7537 -28.1047
rtoes 2.57486
lfemur 4.06194 -49.25 -9.51994
ltibia -4.45634
lfoot -29.0478 56.0271
ltoes 15.0218
11
root 0.659694 17.4087 9.04661 11.0795 -1.87213 -10.1723
lowerback -0.913543 1.25405 6.46927
upperback -10.6879 2.2522 2.61412
thorax -10.7986 0.656647 -0.977106
lowerneck -7.42354 -10.4654 -6.95342
upperneck 22.9424 -14.9421 5.36943
head 9.37475 -7.12494 1.334
rclavicle -1.14798e-014 -2.38542e-015
rhumerus -51.9748 -39.2793 -55.366
rradius 23.6147
rwrist 49.2554
rhand 11.6401 -24.5447
rfingers 7.12502
rthumb 36.6802 -50.6912
lclavicle -1.14798e-014 -2.38542e-015
lhumerus -45.7774 27.1243 69.3493
lradius 22.0294
lwrist -23.0485
lhand -18.1521 -7.44453
lfingers 7.12502
lthumb 8.12358 22.3793
rfemur -4.98954 26.6384 25.5015
rtibia 0.765825
rfoot -12.7689 -28.1477
rtoes 2.6825
lfemur 3.88554 -49.0903 -8.52619
ltibia -4.62649
lfoot -28.1323 55.9506
ltoes 14.0917
12
root 0.660522 17.4092 9.05481 11.1201 -1.76856 -10.4109
lowerback -1.07162 1.25059 6.75019
upperback -10.6684 2.24998 2.67267
thorax -10.6799 0.637044 -1.06554
lowerneck -7.41868 -10.4751 -6.94489
upperneck 22.9102 -14.9548 5.37074
head 9.36285 -7.13074 1.33247
rclavicle 1.44119e-014 -3.04141e-014
rhumerus -51.8852 -39.2031 -55.5197
rradius 23.6641
rwrist 49.0482
rhand 11.4057 -25.0623
rfingers 7.12502
rthumb 36.4584 -51.2648
lclavicle 1.44119e-014 -3.04141e-014
lhumerus -45.7199 27.0782 69.4417
lradius 22.0445
lwrist -22.972
lhand -18.2112 -7.19368
lfingers 7.12502
lthumb 8.06654 22.6324
rfemur -4.92918 26.6174 25.817
rtibia 0.715164
rfoot -12.8017 -28.1486
rtoes 2.90946
lfemur 3.91926 -49.1153 -8.25802
ltibia -4.7015
lfoot -28.1005 55.967
ltoes 13.951
13
root 0.660973 17.4089 9.05702 11.1126 -1.7968 -10.3931
lowerback -1.08335 1.2502 6.73437
upperback -10.6391 2.24551 2.67363
thorax -10.6394 0.637911 -1.0554
lowerneck -7.47462 -10.4827 -6.90897
upperneck 22.8903 -14.9556 5.32911
head 9.35977 -7.13098 1.31042
rclavicle -1.15792e-014 -4.57205e-014
rhumerus -51.8008 -39.2105 -55.6143
rradius 23.6854
rwrist 48.9795
rhand 11.1134 -25.5476
rfingers 7.12502
rthumb 36.1816 -51.8193
lclavicle -1.15792e-014 -4.57205e-014
lhumerus -45.6614 27.0998 69.5015
lradius 22.0581
lwrist -22.9334
lhand -18.1831 -6.97281
lfingers 7.12502
lthumb 8.09358 22.8522
rfemur -4.90466 26.6826 25.8
rtibia 0.719328
rfoot -12.8525 -28.1717
rtoes 3.17181
lfemur 4.02504 -49.2341 -8.37063
ltibia -4.71153
lfoot -28.555 56.0082
ltoes 14.3427
14
root 0.660509 17.4098 9.05878 11.1306 -1.81903 -10.3696
lowerback -1.11824 1.24175 6.69771
upperback -10.6254 2.22818 2.67804
thorax -10.6043 0.634191 -1.02849
lowerneck -7.51585 -10.4882 -6.88075
upperneck 22.898 -14.9474 5.25382
head 9.36087 -7.13102 1.27988
rclavicle 9.44227e-016 -5.32743e-014
rhumerus -51.7058 -39.167 -55.7342
rradius 23.7013
rwrist 48.9489
rhand 10.7986 -26.0573
rfingers 7.12502
rthumb 35.8834 -52.4024
lclavicle 9.44227e-016 -5.32743e-014
lhumerus -45.6658 27.2307 69.4447
lradius 22.0456
lwrist -23.076
lhand -17.9796 -6.89272
lfingers 7.12502
lthumb 8.29003 22.9246
rfemur -4.91105 26.7553 25.7646
rtibia 0.706489
rfoot -12.8238 -28.2307
rtoes 3.05665
lfemur 4.05191 -49.3439 -8.4236
ltibia -4.7043
lfoot -28.8467 56.0608
ltoes 14.7028
15
root 0.660106 17.4106 9.05946 11.1504 -1.83343 -10.3337
lowerback -1.12145 1.23799 6.64449
upperback -10.6392 2.22027 2.66844
thorax -10.619 0.63397 -1.0087
lowerneck -7.46165 -10.4876 -6.94914
upperneck 22.9091 -14.9597 5.33226
head 9.36791 -7.13595 1.31718
rclavicle -1.44616e-014 -3.97569e-016
rhumerus -51.6987 -39.1472 -55.7827
rradius 23.7195
rwrist 48.9808
rhand 10.4762 -26.6188
rfingers 7.12502
rthumb 35.5779 -53.0379
lclavicle -1.44616e-014 -3.97569e-016
lhumerus -45.6637 27.2682 69.4032
lradius 22.0003
lwrist -23.2122
lhand -17.675 -6.95068
lfingers 7.12502
lthumb 8.584 22.8548
rfemur -4.93979 26.776 25.7087
rtibia 0.694912
rfoot -12.7104 -28.2622
rtoes 2.7091
lfemur 4.0238 -49.387 -8.44414
ltibia -4.70018
lfoot -28.8039 56.122
ltoes 14.7737
